<svg width="40" height="40" viewBox="0 0 40 40" fill="none" xmlns="http://www.w3.org/2000/svg">
<path d="M40 20C40 25.5228 37.7614 30.5228 34.1421 34.1421C30.5228 37.7614 25.5228 40 20 40C14.4772 40 9.47715 37.7614 5.85786 34.1421C2.23858 30.5228 0 25.5228 0 20C0 14.4772 2.23858 9.47715 5.85786 5.85786C9.47715 2.23858 14.4772 0 20 0C25.5228 0 30.5228 2.23858 34.1421 5.85786C37.7614 9.47715 40 14.4772 40 20Z" fill="#4D5AE5"/>
<g clip-path="url(#clip0_466602_1135)">
<path d="M28 15.0389C27.405 15.2999 26.771 15.4729 26.11 15.5569C26.79 15.1509 27.309 14.5129 27.553 13.7439C26.919 14.1219 26.219 14.3889 25.473 14.5379C24.871 13.8969 24.013 13.4999 23.077 13.4999C21.261 13.4999 19.799 14.9739 19.799 16.7809C19.799 17.0409 19.821 17.2909 19.875 17.5289C17.148 17.3959 14.735 16.0889 13.114 14.0979C12.831 14.5889 12.665 15.1509 12.665 15.7559C12.665 16.8919 13.25 17.8989 14.122 18.4819C13.595 18.4719 13.078 18.3189 12.64 18.0779C12.64 18.0879 12.64 18.1009 12.64 18.1139C12.64 19.7079 13.777 21.0319 15.268 21.3369C15.001 21.4099 14.71 21.4449 14.408 21.4449C14.198 21.4449 13.986 21.4329 13.787 21.3889C14.212 22.6879 15.418 23.6429 16.852 23.6739C15.736 24.5469 14.319 25.0729 12.785 25.0729C12.516 25.0729 12.258 25.0609 12 25.0279C13.453 25.9649 15.175 26.4999 17.032 26.4999C23.068 26.4999 26.368 21.4999 26.368 17.1659C26.368 17.0209 26.363 16.8809 26.356 16.7419C27.007 16.2799 27.554 15.7029 28 15.0389Z" fill="#F4F4FD"/>
</g>
<defs>
<clipPath id="clip0_466602_1135">
<rect width="16" height="16" fill="white" transform="translate(12 11.9999)"/>
</clipPath>
</defs>
</svg>
